<?xml version="1.0" standalone="no"?>
<!DOCTYPE svg PUBLIC "-//W3C//DTD SVG 1.1//EN" "http://www.w3.org/Graphics/SVG/1.1/DTD/svg11.dtd" >
<svg xmlns="http://www.w3.org/2000/svg">
<metadata>Generated by IcoMoon</metadata>
<defs>
<font id="pacman" horiz-adv-x="1024">
<font-face units-per-em="1024" ascent="960" descent="-64" />
<missing-glyph horiz-adv-x="1024" />
<glyph unicode="&#x20;" horiz-adv-x="512" d="" />
<glyph unicode="&#xe900;" horiz-adv-x="869" d="M690.318 385.606c0-182.253-150.558-329.998-336.281-329.998s-336.281 147.745-336.281 329.998v226.336c0 182.421 153.861 330.302 336.281 330.302s336.281-147.881 336.281-330.302z" />
<glyph unicode="&#xe901;" horiz-adv-x="869" d="M850.972 283.754c0-182.253-150.558-329.998-336.281-329.998s-336.281 147.745-336.281 329.998v227.869c0 182.421 153.861 330.302 336.281 330.302s336.281-147.881 336.281-330.302z" />
<glyph unicode="&#xe902;" horiz-adv-x="869" d="M774.622 334.483c0-182.253-150.558-329.998-336.281-329.998s-336.281 147.745-336.281 329.998v238.598c0 182.421 153.861 330.302 336.281 330.302s336.281-147.881 336.281-330.302z" />
<glyph unicode="&#xe903;" horiz-adv-x="869" d="M671.819 322.37c0-124.089-104.577-224.683-233.578-224.683" />
<glyph unicode="&#xe904;" horiz-adv-x="869" d="M478.574 456.633c0-22.366-18.131-40.497-40.497-40.497s-40.497 18.131-40.497 40.497c0 22.366 18.131 40.497 40.497 40.497s40.497-18.131 40.497-40.497z" />
<glyph unicode="&#xe905;" horiz-adv-x="869" d="M562.145 412.712c-29.535-82.957-104.069-103.282-160.59-84.381" />
<glyph unicode="&#xe906;" horiz-adv-x="859" d="M257.069 941.498h440.832v-838.915h-321.121v215.705h-350.21z" />
<glyph unicode="&#xe907;" horiz-adv-x="859" d="M363.241 793.416h476.857v-838.915h-327.51v215.705h-379.847z" />
<glyph unicode="&#xe908;" horiz-adv-x="859" d="M317.793 866.259h472.066v-838.915h-327.51v215.705h-375.056z" />
<glyph unicode="&#xe909;" horiz-adv-x="859" d="M492.442 513.511c0-11.269-9.135-20.404-20.404-20.404s-20.404 9.135-20.404 20.404c0 11.269 9.135 20.404 20.404 20.404s20.404-9.135 20.404-20.404z" />
<glyph unicode="&#xe90a;" horiz-adv-x="859" d="M602.748 469.395c-30.775-86.439-108.438-107.618-167.331-87.923" />
<glyph unicode="&#xe90b;" horiz-adv-x="859" d="M552.812 114.716h148.533v146.966" />
<glyph unicode="&#xe90c;" horiz-adv-x="1153" d="M459.67 922.368l-430.428-825.527h882.088z" />
<glyph unicode="&#xe90d;" horiz-adv-x="1153" d="M621.537 871.627l-478.139-917.895h979.864z" />
<glyph unicode="&#xe90e;" horiz-adv-x="1153" d="M518.139 887.706l-449.331-864.090h920.827z" />
<glyph unicode="&#xe90f;" horiz-adv-x="1153" d="M559.442 377.652c0-22.335-18.106-40.441-40.441-40.441s-40.441 18.106-40.441 40.441c0 22.335 18.106 40.441 40.441 40.441s40.441-18.106 40.441-40.441z" />
<glyph unicode="&#xe910;" horiz-adv-x="1153" d="M653.171 107.442h191.838l-82.894 159.019" />
<glyph unicode="&#xe911;" horiz-adv-x="1153" d="M639.756 337.112c-13.882-63.007-67.392-93.259-118.132-90.963" />
<glyph unicode="&#xe912;" horiz-adv-x="1022" d="M536.333 586.681c53.302 97.505 31.831 218.401-51.887 292.169s-207.771 81.097-299.797 17.714c-92.026-63.383-127.937-198.347-86.952-305.175-75.878-89.307-98.080-217.183-56.471-328.053s138.886-165.585 246.712-165.585h508.532l-102.568 193.403 87.292 218.23h-213.865z" />
<glyph unicode="&#xe913;" horiz-adv-x="1022" d="M667.271 445.383c53.302 97.505 31.831 218.401-51.887 292.169s-207.771 81.097-299.797 17.714c-92.026-63.383-64.651-180.889-23.666-287.716-75.878-89.307-98.080-217.183-56.471-328.053s138.886-183.044 246.711-183.044h506.35l-139.667 269.784 76.38 124.391h-213.865z" />
<glyph unicode="&#xe914;" horiz-adv-x="1022" d="M603.984 525.576c53.302 97.505 31.831 218.401-51.887 292.169s-207.771 81.097-299.797 17.714c-92.026-63.383-127.937-180.889-86.952-287.716-75.878-89.307-98.080-217.183-56.471-328.053s138.886-183.044 246.711-183.044h508.532l-102.568 193.403 100.385 200.771h-213.865z" />
<glyph unicode="&#xe915;" horiz-adv-x="1022" d="M506.528 113.465h231.324l-65.774 116.585 52.375 100.386" />
<glyph unicode="&#xe916;" horiz-adv-x="1022" d="M519.557 595.576c-9.094-34.73-31.055-63.241-60.358-80.723l-0.604-0.334c-19.157-11.455-42.258-18.229-66.941-18.229-11.918 0-23.466 1.579-34.449 4.539l0.924-0.212" />
<glyph unicode="&#xe917;" horiz-adv-x="1022" d="M429.844 631.592c0 0 0 0 0 0 0-21.694-17.587-39.281-39.281-39.281 0 0 0 0 0 0v0c0 0 0 0 0 0-21.694 0-39.281 17.587-39.281 39.281 0 0 0 0 0 0v0c0 0 0 0 0 0 0 21.694 17.587 39.281 39.281 39.281 0 0 0 0 0 0v0c0 0 0 0 0 0 21.694 0 39.281-17.587 39.281-39.281 0 0 0 0 0 0v0z" />
<glyph unicode="&#xe918;" horiz-adv-x="1022" d="M517.126 303.754c-16.732-55.058-67.049-94.436-126.564-94.436-11.354 0-22.373 1.433-32.886 4.128l0.915-0.199" />
<glyph unicode="&#xe919;" horiz-adv-x="1022" d="M428.753 344.62c0 0 0 0 0 0 0-21.694-17.587-39.281-39.281-39.281 0 0 0 0 0 0v0c0 0 0 0 0 0-21.694 0-39.281 17.587-39.281 39.281 0 0 0 0 0 0v0c0 0 0 0 0 0 0 21.694 17.587 39.281 39.281 39.281 0 0 0 0 0 0v0c0 0 0 0 0 0 21.694 0 39.281-17.587 39.281-39.281 0 0 0 0 0 0v0z" />
<glyph unicode="&#xe91a;" horiz-adv-x="858" d="M158.507 574.821c-55.864 20.592-94.391 85.895-94.391 149.298 0 117.227 94.379 217.238 210.801 217.238s212.004-105.65 213.215-212.411c0.791-69.702-20.435-127.060-76.027-170.484l111.224-101.744 164.036 85.056v-404.057l-161.898 96.539-172.348-90.937c-32.318-16.79-60.991-16.623-99.927-16.623-129.527 0-234.529 101.784-234.529 231.31 0 0-8.306 151.099 139.843 216.813z" />
<glyph unicode="&#xe91b;" horiz-adv-x="858" d="M292.426 458.653c-32.53 23.811-81.516 95.55-81.516 158.954 0 117.227 94.379 226.342 210.801 226.342s212.004-105.65 213.215-212.411c1.069-94.171-48.176-142.026-107.752-179.192l145.086-109.357 167.587 92.136v-458.483l-175.552 151.102-167.796-81.833c-32.318-16.79-60.991-19.841-99.927-19.841-129.527 0-226.563 109.554-226.563 239.081 0 0-3.202 139.054 122.417 193.502z" />
<glyph unicode="&#xe91c;" horiz-adv-x="858" d="M218.46 517.825c-32.53 23.811-81.516 95.55-81.516 158.954 0 117.227 94.379 217.238 210.801 217.238s212.004-105.65 213.215-212.411c0.791-69.702-31.814-128.197-87.407-171.621l124.741-107.824 167.587 85.309v-446.023l-167.587 145.47-172.348-90.937c-32.318-16.79-60.991-19.841-99.927-19.841-129.527 0-234.529 105.002-234.529 234.529 0 0 1.349 152.709 126.969 207.157z" />
<glyph unicode="&#xe91d;" horiz-adv-x="858" d="M699.571 378.090l2.845-193.681-98.431 86.772-222.753-119.755c0 0-10.057-5.575-32.059-5.575" />
<glyph unicode="&#xe91e;" horiz-adv-x="858" d="M349.173 218.21c0 0 70.466-1.137 98.914 73.966" />
<glyph unicode="&#xe91f;" horiz-adv-x="858" d="M384.629 604.661c0 0 31.695 15.32 51.155 58.712" />
<glyph unicode="&#xe920;" horiz-adv-x="858" d="M412.281 547.381c0 0 55.834 28.219 80.915 91.421" />
<glyph unicode="&#xe921;" horiz-adv-x="858" d="M391.789 681.139c0-22.764-18.454-41.219-41.219-41.219s-41.219 18.454-41.219 41.219c0 22.764 18.454 41.219 41.219 41.219s41.219-18.454 41.219-41.219z" />
<glyph unicode="&#xe922;" horiz-adv-x="858" d="M400.214 310.953c0-26.69-21.637-48.327-48.327-48.327s-48.327 21.637-48.327 48.327c0 26.69 21.637 48.327 48.327 48.327s48.327-21.637 48.327-48.327z" />
<glyph unicode="&#xe923;" horiz-adv-x="949" d="M27.58 522.804v53.335c0 196.768 159.512 356.281 356.28 356.281s356.281-159.512 356.281-356.281c0-196.768-159.512-275.003-356.281-275.003h-53.335v221.668z" />
<glyph unicode="&#xe924;" horiz-adv-x="949" d="M208.957 266.525v53.335c0 196.768 159.512 356.281 356.281 356.281s356.281-159.512 356.281-356.281c0-196.768-159.512-356.281-356.281-356.281h-53.335v302.945z" />
<glyph unicode="&#xe925;" horiz-adv-x="949" d="M122.534 396.965v53.335c0 196.768 159.512 356.281 356.281 356.281s356.281-159.512 356.281-356.281c0-196.768-159.512-356.281-356.281-356.281h-53.335v302.945z" />
<glyph unicode="&#xe926;" horiz-adv-x="897" d="M435.711 941.504c132.462 0 239.84-108.231 239.84-240.693 0-34.895-9.11-71.692-24.905-97.148 56.632-59.371 80.402-121.155 80.402-197.877 0-167.153-136.304-302.659-303.458-302.659h-409.094v838.377z" />
<glyph unicode="&#xe927;" horiz-adv-x="897" d="M583.613 792.873c132.462 0 239.84-108.231 239.84-240.693 0-34.895-9.11-71.692-24.905-97.148 56.632-59.371 80.402-121.155 80.402-197.877 0-167.153-136.304-302.659-303.458-302.659h-415.868v838.377z" />
<glyph unicode="&#xe928;" horiz-adv-x="897" d="M520.388 866.26c132.462 0 239.84-108.231 239.84-240.693 0-34.895-9.11-71.692-24.905-97.148 56.632-59.371 80.402-121.155 80.402-197.877 0-167.153-136.304-302.659-303.458-302.659h-415.868v838.377z" />
<glyph unicode="&#xe929;" horiz-adv-x="897" d="M414.254 200.722c0 0 124.193-30.484 163.144 93.709" />
<glyph unicode="&#xe92a;" horiz-adv-x="897" d="M474.537 330.293c0-13.242-10.735-23.977-23.977-23.977v0c0 0 0 0 0 0-13.242 0-23.977 10.735-23.977 23.977v0c0 0 0 0 0 0 0 13.242 10.735 23.977 23.977 23.977 0 0 0 0 0 0v0c13.242 0 23.977-10.735 23.977-23.977 0 0 0 0 0 0v0z" />
<glyph unicode="&#xe92b;" horiz-adv-x="897" d="M414.254 497.656c0 0 124.193-30.484 163.144 93.709" />
<glyph unicode="&#xe92c;" horiz-adv-x="897" d="M474.537 627.227c0-13.242-10.735-23.977-23.977-23.977v0c0 0 0 0 0 0-13.242 0-23.977 10.735-23.977 23.977v0c0 0 0 0 0 0 0 13.242 10.735 23.977 23.977 23.977 0 0 0 0 0 0v0c13.242 0 23.977-10.735 23.977-23.977 0 0 0 0 0 0v0z" />
<glyph unicode="&#xe92d;" horiz-adv-x="897" d="M730.319 328.2c0-117.457-95.217-212.674-212.674-212.674" />
<glyph unicode="&#xe92e;" glyph-name="border" horiz-adv-x="5305" d="M5232.286 97.326c0-49.93-38.701-90.406-86.441-90.406h-4989.753c-47.74 0-86.441 40.476-86.441 90.406v702.392c0 49.93 38.701 90.406 86.441 90.406h4989.399c47.74 0 86.441-40.476 86.441-90.406z" />
<glyph unicode="&#xe92f;" horiz-adv-x="1005" d="M814.66 795.306c-82.388 76.248-205.032 146.55-339.381 146.55-252.452 0-457.135-189.691-457.135-472.589 0-262.677 199.936-471.143 464.543-471.143l355.197 304.224c0 0 28.993 31.956 47.916 78.001l-215.362 95.095z" />
<glyph unicode="&#xe930;" horiz-adv-x="1005" d="M980.812 200.894c-86.078-172.769-222.019-246.75-398.148-246.75-214.046 0-463.365 204.654-463.365 451.253s200.726 446.506 448.335 446.506c161.921 0 278.388-111.684 357.19-239.813l-365.617-210.11z" />
<glyph unicode="&#xe931;" horiz-adv-x="1005" d="M944.524 272.495c-73.183-147.153-226.503-255.429-402.314-255.429-247.161 0-447.524 199.908-447.524 446.506s200.364 446.506 447.524 446.506c161.628 0 302.453-87.072 381.112-215.2l-414.499-229.129z" />
<glyph unicode="&#xe932;" horiz-adv-x="1005" d="M515.992 557.856l280.639 154.096" />
<glyph unicode="&#xe933;" horiz-adv-x="1005" d="M518.217 368.278l289.583-128.411c0 0-79.132-132.805-278.819-129.363" />
<glyph unicode="&#xe934;" horiz-adv-x="943" d="M18.498 105.072h347.53c231.633 0 419.409 185.387 419.409 417.020s-187.776 419.409-419.409 419.409h-347.53z" />
<glyph unicode="&#xe935;" horiz-adv-x="943" d="M164.398-45.502h340.755c231.633 0 419.409 187.776 419.409 419.409s-187.776 419.409-419.409 419.409h-340.755z" />
<glyph unicode="&#xe936;" horiz-adv-x="943" d="M98.342 27.39h347.53c231.633 0 419.409 187.776 419.409 419.409s-187.776 419.409-419.409 419.409h-347.53z" />
<glyph unicode="&#xe937;" horiz-adv-x="943" d="M488.68 446.799c0-21.294-17.262-38.556-38.556-38.556v0c-21.294 0-38.556 17.262-38.556 38.556v0c0 21.294 17.262 38.556 38.556 38.556v0c21.294 0 38.556-17.262 38.556-38.556v0z" />
<glyph unicode="&#xe938;" horiz-adv-x="943" d="M411.692 315.815c0 0 124.208-30.487 163.164 93.72" />
<glyph unicode="&#xe939;" horiz-adv-x="943" d="M776.767 447.173c0-183.465-148.728-332.193-332.193-332.193" />
<glyph unicode="&#xe93a;" horiz-adv-x="1000" d="M570.63 641.689c0-139.352-112.967-252.319-252.319-252.319s-252.319 112.967-252.319 252.319c0 139.352 112.967 252.319 252.319 252.319s252.319-112.967 252.319-252.319z" />
<glyph unicode="&#xe93b;" horiz-adv-x="1000" d="M933.837 254.311c0-139.352-112.967-252.319-252.319-252.319s-252.319 112.967-252.319 252.319c0 139.352 112.967 252.319 252.319 252.319s252.319-112.967 252.319-252.319z" />
<glyph unicode="&#xe93c;" horiz-adv-x="1000" d="M792.802 453.697c0-139.352-112.967-252.319-252.319-252.319s-252.319 112.967-252.319 252.319c0 139.352 112.967 252.319 252.319 252.319s252.319-112.967 252.319-252.319z" />
<glyph unicode="&#xe93d;" horiz-adv-x="896" d="M609.299 396.901h-271.28M518.896 668.212h-180.46M609.299 396.901v271.311h-90.404v273.051l-500.399 0.232v-838.199h683.268v293.605z" />
<glyph unicode="&#xe93e;" horiz-adv-x="896" d="M784.934 248.101h-271.28M694.531 519.412h-180.46M784.934 248.101v271.311h-90.404v273.051l-528.944 0.232v-838.199h711.813v293.605z" />
<glyph unicode="&#xe93f;" horiz-adv-x="896" d="M691.25 321.063h-271.28M600.847 592.374h-180.46M691.25 321.063v271.311h-90.404v273.051l-500.399 0.232v-838.199h683.268v293.605z" />
<glyph unicode="&#xe940;" horiz-adv-x="896" d="M474.131 114.804h227.216v111.517" />
<glyph unicode="&#xe941;" horiz-adv-x="901" d="M578.552 419.051h-240.507M461.45 668.027h-122.988M578.552 419.051v248.976h-117.102v273.213l-442.952 0.232v-838.402h704.078v315.982z" />
<glyph unicode="&#xe942;" horiz-adv-x="901" d="M739.062 249.759h-240.507M621.96 482.881h-122.988M739.062 249.759v233.121h-117.102v255.683l-442.952 0.217v-784.882h704.078v295.861z" />
<glyph unicode="&#xe943;" horiz-adv-x="901" d="M739.062 250.208h-240.507M621.96 483.33h-122.988M739.062 250.208v233.121h-117.102v255.683l-442.952 0.217v-784.882h704.078v295.861z" />
<glyph unicode="&#xe944;" horiz-adv-x="901" d="M652.608 343.333h-240.507M535.506 592.309h-122.988M652.608 343.333v248.976h-117.102v273.777l-442.952 0.232v-838.967h704.078v315.982z" />
<glyph unicode="&#xe945;" horiz-adv-x="901" d="M549.625 114.704h158.438v162.335" />
<glyph unicode="&#xe946;" horiz-adv-x="525" d="M472.655 93.678c0-76.932-62.366-139.298-139.298-139.298v0c-76.932 0-139.298 62.366-139.298 139.298v0c0 76.932 62.366 139.298 139.298 139.298v0c76.932 0 139.298-62.366 139.298-139.298v0z" />
<glyph unicode="&#xe947;" horiz-adv-x="525" d="M18.38 941.62h332.779v-589.699h-332.779z" />
<glyph unicode="&#xe948;" horiz-adv-x="525" d="M326.954 163.693c0-80.403-65.18-145.583-145.583-145.583v0c-80.403 0-145.583 65.18-145.583 145.583v0c0 80.403 65.18 145.583 145.583 145.583v0c80.403 0 145.583-65.18 145.583-145.583v0z" />
<glyph unicode="&#xe949;" horiz-adv-x="525" d="M155.544 806.201h350.912v-604.728h-350.912z" />
<glyph unicode="&#xe94a;" horiz-adv-x="525" d="M93.166 870.054h332.779v-604.728h-332.779z" />
<glyph unicode="&#xe94b;" horiz-adv-x="525" d="M167.415 336.892h188.754v147.603" />
<glyph unicode="&#xe94c;" horiz-adv-x="525" d="M405.586 119.96c0-80.403-65.18-145.583-145.583-145.583v0c-80.403 0-145.583 65.18-145.583 145.583v0c0 80.403 65.18 145.583 145.583 145.583v0c80.403 0 145.583-65.18 145.583-145.583v0z" />
<glyph unicode="&#xe94d;" horiz-adv-x="525" d="M332.366 119.96c0 0 0 0 0 0 0-40.953-33.199-74.153-74.153-74.153v0" />
<glyph unicode="&#xe94e;" horiz-adv-x="843" d="M169.5-45.498v838.402h654.507v-284.094h-144.048v-280.959h-181.407v-273.319z" />
<glyph unicode="&#xe94f;" horiz-adv-x="843" d="M522.185 657.466h-240.549M18.499 103.271v838.23h647.735v-284.035h-144.048v-280.901h-240.132v-273.263z" />
<glyph unicode="&#xe950;" horiz-adv-x="843" d="M599.090 582.045h-198.195M95.166 27.348v838.99h647.719v-284.293h-144.045v-281.156h-179.439v-273.511z" />
<glyph unicode="&#xe951;" horiz-adv-x="843" d="M173.58 114.7h158.464v162.362" />
<glyph unicode="&#xe952;" horiz-adv-x="1033" d="M808.117 796.628c-81.726 75.636-203.386 145.373-336.655 145.373-250.425 0-453.464-188.168-453.464-468.794 0-260.567 198.331-467.359 460.812-467.359l352.344 301.781c0 0 28.76 31.699 47.531 77.374l-213.632 94.331z" />
<glyph unicode="&#xe953;" horiz-adv-x="1033" d="M858.482 58.163c-80.635-57.36-170.314-94.907-260.363-95.165-240.832 0.155-485.002 211.475-485.002 446.642 0 244.618 253.215 427.815 498.391 427.815 160.33 0 223.893-72.389 302.698-229.009l-344.362-178.049 57.767-0.317 387.884-3.686v-459.171z" />
<glyph unicode="&#xe954;" horiz-adv-x="1033" d="M809.724 120.75c-75.226-59.509-169.431-96.111-271.239-96.111-245.176 0-443.93 198.302-443.93 442.92s198.754 442.92 443.93 442.92c160.33 0 300.024-86.372 378.052-213.472l-366.113-191.255 8.826-0.317 379.095-3.686v-454.201z" />
<glyph unicode="&#xe955;" horiz-adv-x="1033" d="M521.865 573.422l285.584 149.187" />
<glyph unicode="&#xe956;" horiz-adv-x="1033" d="M863.048 415.533v-238.213l-62.378 35.502c0 0-92.337-108.569-274.118-108.569" />
<glyph unicode="&#xe957;" horiz-adv-x="989" d="M18.905 115.302l-0.399 826.201h346.498v-238.954h92.328v238.884h352.369v-825.99h-349.888l-0.002 236.091h-91.986l0.401-236.584z" />
<glyph unicode="&#xe958;" horiz-adv-x="989" d="M162.39-45.133l-0.399 831.788h359.865v-244.541h84.604v244.471h363.655v-831.576h-354.403l-0.002 312.707h-90.493l0.401-313.201z" />
<glyph unicode="&#xe959;" horiz-adv-x="989" d="M96.62 28.219v838.205h349.32v-238.954h91.986v238.884h349.888v-838.487h-349.888l-0.002 248.589h-91.986l0.002-248.589z" />
<glyph unicode="&#xe95a;" horiz-adv-x="989" d="M179.883 115.555h178.365v165.603" />
<glyph unicode="&#xe95b;" horiz-adv-x="989" d="M621.76 115.555h178.365v165.603" />
<glyph unicode="&#xe95c;" horiz-adv-x="989" d="M809.989 941.425v-826.285h-350.013l-0.002 236.175h-92.019l0.401-236.669-349.444 0.353-0.4 826.496z" />
<glyph unicode="&#xe95d;" horiz-adv-x="989" d="M162.448-45.494l-0.4 832.085h359.994v-244.628h84.634v244.558h363.785v-831.873z" />
<glyph unicode="&#xe95e;" horiz-adv-x="989" d="M492.428 572.53v293.789h395.703v-838.787h-395.703l-0.002 293.84M492.428 866.319h-395.774v-838.787h395.774" />
<glyph unicode="&#xe95f;" horiz-adv-x="989" d="M569.29 115.252h231.122v165.662" />
<glyph unicode="&#xe960;" horiz-adv-x="1515" d="M444.689 492.96h1021.514v-508.069h-1021.514v508.069z" />
<glyph unicode="&#xe961;" horiz-adv-x="1515" d="M48.891 911.109h1021.514v-508.069h-1021.514v508.069z" />
<glyph unicode="&#xe962;" horiz-adv-x="1515" d="M241.827 694.056h1021.514v-508.069h-1021.514v508.069z" />
<glyph unicode="&#xe963;" horiz-adv-x="540" d="M18.496 941.504h343.592v-838.578h-343.592z" />
<glyph unicode="&#xe964;" horiz-adv-x="540" d="M157.896 786.471h363.226v-831.975h-363.226z" />
<glyph unicode="&#xe965;" horiz-adv-x="540" d="M96.050 866.194h343.592v-838.646h-343.592z" />
<glyph unicode="&#xe966;" horiz-adv-x="540" d="M176.548 102.925h184.558v172.778" />
<glyph unicode="&#xe967;" horiz-adv-x="881" d="M863.838 789.195v-478.574c0-205.017-177.427-357.005-342.265-357.005-304.952 0-398.186 227.329-398.186 354.581 0 7.312 0.232 14.569 0.689 21.766h400.506v459.233z" />
<glyph unicode="&#xe968;" horiz-adv-x="881" d="M705.651 942.385v-506.386c0-192.252-158.132-366.428-348.104-366.428-139.565 0-339.893 131.165-339.893 410.513 0 7.524-0.282 34.711 4.472 53.081h334.41v409.219z" />
<glyph unicode="&#xe969;" horiz-adv-x="881" d="M786.296 870.812v-518.214c0-192.252-159.083-348.104-349.054-348.104-192.252 0-347.153 155.851-347.153 348.104 0 7.524-5.057 54.287 7.161 105.193h339.933v413.021z" />
<glyph unicode="&#xe96a;" horiz-adv-x="881" d="M707.753 352.083c0-150.258-120.314-272.065-270.572-272.065" />
<glyph unicode="&#xe96b;" horiz-adv-x="883" d="M865.583 790.454v-459.037c0-203.506-172.157-377.931-335.78-377.931-234.686 0-335.78 164.538-335.78 337.101 0 7.258 0.23 14.462 0.684 21.605h334.121v478.263z" />
<glyph unicode="&#xe96c;" horiz-adv-x="883" d="M708.562 942.514v-574.165c0-190.835-156.967-333.798-345.538-333.798-154.546 0-345.538 116.279-345.538 393.568 0 7.469 0.237 18.656 0.704 26.007h343.831v488.388z" />
<glyph unicode="&#xe96d;" horiz-adv-x="883" d="M788.612 871.469v-514.394c0-190.835-156.967-345.538-345.538-345.538-190.835 0-345.538 154.703-345.538 345.538 0 7.469 0.237 14.882 0.704 22.233h343.831v492.162z" />
<glyph unicode="&#xe96e;" horiz-adv-x="883" d="M710.648 356.564c0-149.15-120.91-270.060-270.060-270.060" />
<glyph unicode="&#xe96f;" horiz-adv-x="1119" d="M711.626 476.73c0 0 170.883 18.328 264.977 216.224l-265.307 233.305c-123.255-247.072-337.518-204.668-337.518-204.668v219.968h-355.338v-833.72h367.719v197.798c0 0 223.598-249.886 584.357-195.294v317.29h-57.293c0 0-131.906-4.192-201.598 49.097z" />
<glyph unicode="&#xe970;" horiz-adv-x="1119" d="M766.705 314.972c0 0 186.948 46.582 306.295 263.557l-267.202 234.972c-115.375-253.826-265.505-245.266-265.505-245.266v241.958h-374.473v-854.264h374.473v255.487c0 0 199.96-305.041 560.719-250.449v315.488c0 0-248.046-34.437-334.307 38.517z" />
<glyph unicode="&#xe971;" horiz-adv-x="1119" d="M788.168 401.778c0 0 168.632 85.262 262.726 283.158l-265.307 233.305c-115.375-253.826-322.885-275.582-322.885-275.582v223.948h-367.719v-836.254h367.719v200.332c0 0 206.713-249.886 567.473-195.294v306.034h-40.409c0 0-131.906 7.064-201.598 60.354z" />
<glyph unicode="&#xe972;" horiz-adv-x="1119" d="M200.841 117.827h173.086v194.615" />
<glyph unicode="&#xe973;" horiz-adv-x="1119" d="M951.381 238.564v-121.096c0 0-235.253-27.485-414.226 152.614" />
<glyph unicode="&#xe974;" horiz-adv-x="1119" d="M623.479 436.607c0 0 118.73 23.315 200.301 89.57 0 0 66.955 49.91 116.479 122.943" />
<glyph unicode="&#xe975;" horiz-adv-x="886" d="M369.736 461.448h334.293v-359.145h-685.527v839.196h351.234z" />
<glyph unicode="&#xe976;" horiz-adv-x="886" d="M530.574 313.647h336.552v-359.145h-702.468v836.372h365.916z" />
<glyph unicode="&#xe977;" horiz-adv-x="886" d="M448.791 386.564h334.293v-359.145h-685.527v839.196h351.234z" />
<glyph unicode="&#xe978;" horiz-adv-x="886" d="M369.736 767.161v-378.339" />
<glyph unicode="&#xe979;" horiz-adv-x="886" d="M704.029 295.085v-180.067h-220.227" />
<glyph unicode="&#xe97a;" horiz-adv-x="886" d="M369.736 461.448h334.293v-359.145h-685.527v839.196h351.234z" />
<glyph unicode="&#xe97b;" horiz-adv-x="886" d="M530.574 313.647h336.552v-359.145h-702.468v836.372h365.916z" />
<glyph unicode="&#xe97c;" horiz-adv-x="886" d="M448.791 386.564h334.293v-359.145h-685.527v839.196h351.234z" />
<glyph unicode="&#xe97d;" horiz-adv-x="886" d="M369.736 809.425v-440.593" />
<glyph unicode="&#xe97e;" horiz-adv-x="886" d="M704.029 332.097v-217.080h-352.796" />
<glyph unicode="&#xe97f;" horiz-adv-x="926" d="M390.435 506.997l-373.042 384.345v-797.695h767.87v823.226z" />
<glyph unicode="&#xe980;" horiz-adv-x="926" d="M535.529 499.389l-367.882 373.152v-919.148h740.735v898.187z" />
<glyph unicode="&#xe981;" horiz-adv-x="926" d="M455.991 472.562l-373.042 384.345v-834.771h746.293v834.771z" />
<glyph unicode="&#xe982;" horiz-adv-x="926" d="M564.761 104.339h183.649v158.796" />
<glyph unicode="&#xe983;" horiz-adv-x="884" d="M372.59 522.336l-0.768 379.582h343.262v-804.82h-697.295l0.767 816.794z" />
<glyph unicode="&#xe984;" horiz-adv-x="884" d="M523.437 485.865l-0.768 268.733h343.262v-800.825h-690.786l0.767 921.538z" />
<glyph unicode="&#xe985;" horiz-adv-x="884" d="M438.35 476.508l-0.768 353.096h343.262v-805.723h-695.389l0.767 842.073z" />
<glyph unicode="&#xe986;" horiz-adv-x="884" d="M698.967 268.164v-160.263h-185.639" />
<glyph unicode="&#xe987;" horiz-adv-x="1052" d="M953.844 474.055c0-258.413-209.485-467.899-467.899-467.899s-467.899 209.486-467.899 467.899c0 258.413 209.486 467.899 467.899 467.899 211.897 0 467.899-224.993 467.899-467.899z" />
<glyph unicode="&#xe988;" horiz-adv-x="1052" d="M1033.738 402.516c0-247.636-200.749-448.385-448.385-448.385s-448.385 200.749-448.385 448.385c0 247.636 200.749 448.385 448.385 448.385s448.385-200.749 448.385-448.385z" />
<glyph unicode="&#xe989;" horiz-adv-x="1052" d="M981.463 453.185c0-246.467-199.801-446.268-446.268-446.268s-446.268 199.801-446.268 446.268c0 246.467 199.801 446.268 446.268 446.268s446.268-199.801 446.268-446.268z" />
<glyph unicode="&#xe98a;" horiz-adv-x="1052" d="M898.521 453.159c0-204.613-158.162-366.053-362.775-366.053" />
<glyph unicode="&#xe98b;" horiz-adv-x="1052" d="M574.242 453.703c0-22.73-18.427-41.157-41.157-41.157s-41.157 18.427-41.157 41.157c0 22.73 18.427 41.157 41.157 41.157s41.157-18.427 41.157-41.157z" />
<glyph unicode="&#xe98c;" horiz-adv-x="1052" d="M660.652 418.677c-14.127-64.122-93.369-101.518-158.225-90.369" />
<glyph unicode="&#xe98d;" horiz-adv-x="1052" d="M953.844 474.055c0-258.413-209.485-467.899-467.899-467.899s-467.899 209.486-467.899 467.899c0 258.413 209.486 467.899 467.899 467.899 211.897 0 467.899-224.993 467.899-467.899z" />
<glyph unicode="&#xe98e;" horiz-adv-x="1052" d="M1033.738 402.516c0-247.636-200.749-448.385-448.385-448.385s-448.385 200.749-448.385 448.385c0 247.636 200.749 448.385 448.385 448.385s448.385-200.749 448.385-448.385z" />
<glyph unicode="&#xe98f;" horiz-adv-x="1052" d="M981.463 453.185c0-246.467-199.801-446.268-446.268-446.268s-446.268 199.801-446.268 446.268c0 246.467 199.801 446.268 446.268 446.268s446.268-199.801 446.268-446.268z" />
<glyph unicode="&#xe990;" horiz-adv-x="1052" d="M858.76 284.489c-60.171-117.177-182.23-197.348-323.014-197.348" />
<glyph unicode="&#xe991;" horiz-adv-x="1052" d="M574.242 453.703c0-22.73-18.427-41.157-41.157-41.157s-41.157 18.427-41.157 41.157c0 22.73 18.427 41.157 41.157 41.157s41.157-18.427 41.157-41.157z" />
<glyph unicode="&#xe992;" horiz-adv-x="888" d="M379.851 374.402h63.55c185.203 0 294.622 130.369 296.096 283.551 1.717 178.52-151.029 283.551-296.096 283.551h-424.905v-836.305h361.406z" />
<glyph unicode="&#xe993;" horiz-adv-x="888" d="M584.799 225.767c193.46 0 284.846 117.472 284.846 286.864 0 179.9-141.939 284.596-284.846 284.596h-418.582v-842.731h378.838l-0.051 271.272z" />
<glyph unicode="&#xe994;" horiz-adv-x="888" d="M456.254 297.987h63.844c186.060 0 295.986 130.663 297.466 284.192 1.725 178.924-151.728 284.192-297.466 284.192h-426.872v-838.794h363.079z" />
<glyph unicode="&#xe995;" horiz-adv-x="888" d="M190.459 115.147h180.484v265.27l128.369-0.206c100.425 0 230.899 46.818 230.899 199.147" />
<glyph unicode="&#xe996;" horiz-adv-x="888" d="M609.966 546.045c-30.766-86.414-108.407-107.587-167.283-87.897" />
<glyph unicode="&#xe997;" horiz-adv-x="888" d="M499.692 590.148c0-11.265-9.132-20.398-20.398-20.398s-20.398 9.132-20.398 20.398c0 11.265 9.132 20.398 20.398 20.398s20.398-9.132 20.398-20.398z" />
<glyph unicode="&#xe998;" horiz-adv-x="1167" d="M939.143 481.545c0-254.431-206.257-406.57-460.687-406.57s-460.688 152.139-460.688 406.57c0 254.431 206.257 460.688 460.688 460.688 208.631 0 460.687-221.525 460.687-460.688z" />
<glyph unicode="&#xe999;" horiz-adv-x="1167" d="M989.942 223.334c10.755 17.81 20.282 36.444 28.463 55.787 22.234 52.568 34.529 110.363 34.529 171.030 0 229.654-234.678 439.389-513.138 439.389-242.668 0-398.184-261.308-398.184-503.976s297.497-431.798 478.301-431.798h517.28z" />
<glyph unicode="&#xe99a;" horiz-adv-x="1167" d="M903.344 234.18c10.755 17.81 20.282 36.444 28.463 55.787 22.234 52.568 34.529 110.363 34.529 171.030 0 242.668-196.721 439.389-439.39 439.389s-439.389-196.721-439.389-439.389c0-242.668 196.721-439.389 439.389-439.389h492.515z" />
<glyph unicode="&#xe99b;" horiz-adv-x="1167" d="M892.264 462.081c0-86.537-30.134-166.036-80.481-228.576l72.586-132.88h-359.455" />
<glyph unicode="&#xe99c;" horiz-adv-x="1167" d="M565.392 461.507c0-22.38-18.143-40.523-40.523-40.523s-40.523 18.143-40.523 40.523c0 22.38 18.143 40.523 40.523 40.523s40.523-18.143 40.523-40.523z" />
<glyph unicode="&#xe99d;" horiz-adv-x="1167" d="M650.47 427.020c-13.91-63.134-91.93-99.954-155.786-88.977" />
<glyph unicode="&#xe99e;" horiz-adv-x="920" d="M677.816 103.166h-659.327v838.344h410.304c145.985 0 288.898-113.932 287.472-267.909-1.423-153.556-108.633-268.312-287.472-268.312z" />
<glyph unicode="&#xe99f;" horiz-adv-x="920" d="M879.126-45.508h-686.445v844.211h414.665c173.67 0 269.717-122.022 269.717-269.717 0-110.694-83.523-269.717-269.717-269.717z" />
<glyph unicode="&#xe9a0;" horiz-adv-x="920" d="M781.228 27.64h-685.79v838.661h426.772c151.844 0 300.493-113.975 299.009-268.010-1.48-153.614-112.993-268.414-299.009-268.414z" />
<glyph unicode="&#xe9a1;" horiz-adv-x="920" d="M485.349 590.215c0-11.263-9.13-20.393-20.393-20.393s-20.393 9.13-20.393 20.393c0 11.263 9.13 20.393 20.393 20.393s20.393-9.13 20.393-20.393z" />
<glyph unicode="&#xe9a2;" horiz-adv-x="920" d="M436.364 115.077h143.549l-132.949 154.876" />
<glyph unicode="&#xe9a3;" horiz-adv-x="920" d="M696.349 497.578c-35.917-48.55-94.829-76.927-176.443-76.927" />
<glyph unicode="&#xe9a4;" horiz-adv-x="917" d="M892.347 617.743l-339.411-67.865 0.141-10.467c334.112-37.239 325.745-296.917 325.745-296.917-6.898-306.173-385.521-288.538-385.521-288.538-261.691 0-328.872 215.095-328.872 215.095l345.807 69.116-0.593 10.144c0 0-312.593 4.685-338.063 257.764 0 0-27.042 305.027 372.488 327.47 0 0 253.182 16.725 348.278-215.803z" />
<glyph unicode="&#xe9a5;" horiz-adv-x="917" d="M750.749 726.254l-339.411-67.865 0.141-10.467c334.112-37.239 325.745-296.917 325.745-296.917-6.898-306.173-385.521-288.538-385.521-288.538-261.691 0-328.871 215.095-328.871 215.095l345.807 69.116-0.593 10.144c0 0-312.593 4.685-338.063 257.764 0 0-27.042 305.027 372.488 327.47 0 0 253.182 16.725 348.278-215.803z" />
<glyph unicode="&#xe9a6;" horiz-adv-x="917" d="M811.294 673.373l-339.411-67.865 0.141-10.467c334.112-37.239 325.745-296.917 325.745-296.917-6.898-306.173-385.521-288.538-385.521-288.538-261.691 0-328.871 215.095-328.871 215.095l345.807 69.116-0.593 10.144c0 0-312.593 4.685-338.063 257.764 0 0-27.042 305.027 372.488 327.47 0 0 253.182 16.725 348.278-215.803z" />
<glyph unicode="&#xe9a7;" horiz-adv-x="917" d="M295.375 112.449c0 0 34.584-30.402 165.271-26.171 0 0 176.172 0.181 238.931 117.347" />
<glyph unicode="&#xe9a8;" horiz-adv-x="851" d="M474.385 657.88c128.48-48.406 212.909-160.509 212.909-294.821 0-185.376-153.6-311.804-294.626-311.804h-75.775c0 0-201.421 6.634-293.193 201.142l266.031 147.738c-112.418 25.327-239.187 102.815-239.187 249.055 0 160.39 116.152 292.632 297.625 292.632l63.15-0.213c0 0 198.746 7.028 275.171-189.42z" />
<glyph unicode="&#xe9a9;" horiz-adv-x="851" d="M611.277 556.127c128.48-48.406 221.539-165.216 221.539-290.114 0-185.376-153.6-311.804-294.626-311.804h-61.541c0 0-208.078-11.119-293.193 201.142l200.362 111.269c-61.378 26.436-209.025 141.502-209.025 285.524 0 160.39 125.029 292.632 285.419 292.632l27.644-0.213c0 0 209.605-45.539 220.125-231.003z" />
<glyph unicode="&#xe9aa;" horiz-adv-x="851" d="M558.711 617.936c138.466-46.187 212.909-160.509 212.909-294.821 0-185.376-153.6-311.804-294.626-311.804h-75.775c0 0-208.078-11.119-293.193 201.142l215.908 119.903c-112.418 25.327-213.475 130.65-213.475 276.89 0 160.39 137.234 292.632 297.625 292.632l47.616-0.213c0 0 200.965 7.028 277.39-189.42z" />
<glyph unicode="&#xe9ab;" horiz-adv-x="851" d="M507.047 673.952l124.526 67.347" />
<glyph unicode="&#xe9ac;" horiz-adv-x="851" d="M694.547 325.009c0-124.31-96.785-238.847-234.964-238.847" />
<glyph unicode="&#xe9ad;" horiz-adv-x="669" d="M420.4 347l-393.648 0.045c0-136.189 110.403-256.858 246.592-256.858s238.527 110.403 238.527 246.592c0 137.458-98.874 208.092-160.139 236.471l-263.873 121.519 424.012-0.049c0 136.189-110.403 246.592-246.592 246.592s-246.592-110.403-246.592-246.592c0-137.458 98.874-208.092 160.139-236.472z" />
<glyph unicode="&#xe9ae;" horiz-adv-x="669" d="M581.418 201.233l-424.005 0.045c0-136.189 110.403-246.592 246.592-246.592s246.592 110.403 246.592 246.592c0 137.458-98.874 208.092-160.139 236.471l-263.873 121.519 414.887-0.049c0 136.189-110.403 246.592-246.592 246.592s-237.467-110.403-237.467-246.592c0-137.458 98.874-208.092 160.139-236.472z" />
<glyph unicode="&#xe9af;" horiz-adv-x="669" d="M343.629 614.151c-3.1 3.1-5.017 7.382-5.017 12.112 0 9.46 7.669 17.129 17.13 17.129s17.129-7.669 17.129-17.129h205.867c0 136.189-110.403 246.592-246.592 246.592s-246.592-110.403-246.592-246.592c0-68.095 27.601-129.743 72.225-174.367l162.926-171.673c3.1-3.1 5.017-7.382 5.017-12.112 0-9.46-7.669-17.129-17.13-17.129s-17.129 7.669-17.129 17.129l-205.909 0.045c0-136.189 110.403-246.592 246.592-246.592s246.592 110.403 246.592 246.592c0 68.095-27.601 129.743-72.225 174.367z" />
<glyph unicode="&#xe9b0;" horiz-adv-x="669" d="M409.958 340.754c15.432-21.078 25.36-44.435 25.36-72.907 0-56.944-41.323-103.106-98.267-103.106" />
<glyph unicode="&#xe9b1;" horiz-adv-x="958" d="M571.958 589.166h207.542v352.336h-761.003v-352.336h207.539v-486.405h345.923z" />
<glyph unicode="&#xe9b2;" horiz-adv-x="958" d="M731.494 435.256h207.542v352.336h-772.294v-352.336h207.539v-480.759h357.213z" />
<glyph unicode="&#xe9b3;" horiz-adv-x="958" d="M650.2 514.101h207.542v352.336h-761.003v-352.336h207.539v-486.405h345.923z" />
<glyph unicode="&#xe9b4;" horiz-adv-x="958" d="M631.642 607.14h135.406v174.619" />
<glyph unicode="&#xe9b5;" horiz-adv-x="958" d="M392.798 115.031h172.269v167.669" />
<glyph unicode="&#xe9b6;" horiz-adv-x="904" d="M551.981 65.851c-110.040-63.531-245.614-38.687-355.653 24.845s-177.827 180.942-177.827 308.005v542.798h707.293v-571.557c0-127.063-63.774-240.56-173.813-304.091z" />
<glyph unicode="&#xe9b7;" horiz-adv-x="904" d="M707.467 3.094c-110.040-63.531-245.614-65.421-355.653-1.89s-177.827 150.708-177.827 277.77v525.154h711.073v-474.267c0-127.063-67.553-263.236-177.592-326.767z" />
<glyph unicode="&#xe9b8;" horiz-adv-x="904" d="M626.506 57.233c-110.040-63.531-245.614-63.531-355.653 0s-177.827 180.942-177.827 308.005v504.261l711.073-2.682v-505.493c0-127.063-67.553-240.56-177.592-304.091z" />
<glyph unicode="&#xe9b9;" horiz-adv-x="904" d="M723.862 363.348c0-153.544-124.472-278.017-278.017-278.017" />
<glyph unicode="&#xe9ba;" horiz-adv-x="1154" d="M229.85 810.859l446.669-837.326 448.028 837.326h-380.306l-67.043-125.303-66.846 125.303z" />
<glyph unicode="&#xe9bb;" horiz-adv-x="1154" d="M29.482 942.303l490.491-920.46 491.984 920.46h-417.617l-73.62-137.662-73.404 137.662z" />
<glyph unicode="&#xe9bc;" horiz-adv-x="1154" d="M156.938 870.607l458.533-862.194 459.929 862.194h-390.407l-68.824-129.024-68.621 129.024z" />
<glyph unicode="&#xe9bd;" horiz-adv-x="1154" d="M567.531 272.809l48.004-88.363 136.55 257.889" />
<glyph unicode="&#xe9be;" horiz-adv-x="1281" d="M798.393 57.756l314.137 884.689h-1087.668l302.575-852.112 226.797 425.727z" />
<glyph unicode="&#xe9bf;" horiz-adv-x="1281" d="M966.839-20.613l289.381 814.971h-1028.073l286.174-805.922 223.845 420.187z" />
<glyph unicode="&#xe9c0;" horiz-adv-x="1281" d="M900.86 18.956l302.569 852.112h-1066.458l302.575-852.112 230.654 432.967z" />
<glyph unicode="&#xe9c1;" horiz-adv-x="1281" d="M429.244 282.953l23.916-67.352 122.055 229.113" />
<glyph unicode="&#xe9c2;" horiz-adv-x="1281" d="M851.366 282.953l35.881-67.352 81.354 229.113" />
<glyph unicode="&#xe9c3;" horiz-adv-x="1076" d="M873.836 107.214h-771.521l182.211 341.087-254.164 493.188h843.474l-214.453-417.138z" />
<glyph unicode="&#xe9c4;" horiz-adv-x="1076" d="M1045.584-45.49h-842.995l243.221 417.138-169.993 417.138h693.924l-178.631-340.483z" />
<glyph unicode="&#xe9c5;" horiz-adv-x="1076" d="M922.903 27.387l-773.85 0.121 224.792 420.794-222.299 418.159h768.893l-214.453-418.159z" />
<glyph unicode="&#xe9c6;" horiz-adv-x="1076" d="M643.465 510.228l138.386 259.050" />
<glyph unicode="&#xe9c7;" horiz-adv-x="1076" d="M564.87 108.934h229.311l-94.52 183.411" />
<glyph unicode="&#xe9c8;" horiz-adv-x="1086" d="M421.879 105.284h197.112l97.375 374.488 246.41 461.728h-932.422l277.479-538.101v-298.116h130.247" />
<glyph unicode="&#xe9c9;" horiz-adv-x="1086" d="M614.337-45.501h214.296v425.987l225.408 400.631h-831.228l233.564-461.729v-364.889h174.161" />
<glyph unicode="&#xe9ca;" horiz-adv-x="1086" d="M550.184 27.615h197.112v377.311l257.866 461.729h-846.503l233.565-461.729v-377.311h174.161" />
<glyph unicode="&#xe9cb;" horiz-adv-x="1086" d="M474.934 114.885h188.067v169.312" />
<glyph unicode="&#xe9cc;" horiz-adv-x="1086" d="M728.463 530.775l126.014 232.935" />
<glyph unicode="&#xe9cd;" horiz-adv-x="858" d="M667.984 115.594h-640.97l188.555 485.473h-191.343v340.446h675.207l-165.342-477.933-19.805-172.216z" />
<glyph unicode="&#xe9ce;" horiz-adv-x="858" d="M839.546-45.512h-697.103l197.814 491.028h-187.234v340.446h660.193l-182.008-477.934h208.338z" />
<glyph unicode="&#xe9cf;" horiz-adv-x="858" d="M759.052 27.793h-687.7l190.075 494.986h-157.009v343.19h659.915l-183.475-481.786h178.195z" />
<glyph unicode="&#xe9d0;" horiz-adv-x="858" d="M452.399 114.703h219.981v178.080" />
<glyph unicode="&#xe9d1;" horiz-adv-x="858" d="M492.99 390.988l144.035 378.419" />
<glyph unicode="&#xe9d2;" horiz-adv-x="1005" d="M814.66 795.306c-82.388 76.248-205.032 146.55-339.381 146.55-252.452 0-457.135-189.691-457.135-472.589 0-262.677 199.936-471.143 464.543-471.143l355.197 304.224c0 0 28.993 31.956 47.916 78.001l-215.362 95.095z" />
<glyph unicode="&#xe9d3;" horiz-adv-x="1005" d="M980.812 200.894c-86.078-172.769-222.019-246.75-398.148-246.75-214.046 0-463.365 204.654-463.365 451.253s200.726 446.506 448.335 446.506c161.921 0 278.388-111.684 357.19-239.813l-365.617-210.11z" />
<glyph unicode="&#xe9d4;" horiz-adv-x="1005" d="M944.524 272.495c-73.183-147.153-226.503-255.429-402.314-255.429-247.161 0-447.524 199.908-447.524 446.506s200.364 446.506 447.524 446.506c161.628 0 302.453-87.072 381.112-215.2l-414.499-229.129z" />
<glyph unicode="&#xe9d5;" horiz-adv-x="1005" d="M518.217 368.278l289.583-128.411c0 0-79.132-132.805-278.819-129.363" />
<glyph unicode="&#xe9d6;" horiz-adv-x="1005" d="M497.44 627.356c0-22.854-18.527-41.381-41.381-41.381s-41.381 18.527-41.381 41.381c0 22.854 18.527 41.381 41.381 41.381s41.381-18.527 41.381-41.381z" />
<glyph unicode="&#xe9d7;" horiz-adv-x="1100" d="M885.609 103.718h-867.117v837.789h822.24l-293.749-389.168z" />
<glyph unicode="&#xe9d8;" horiz-adv-x="1100" d="M1062.539-45.508h-899.057v871.562h785.625l-273.023-359.575z" />
<glyph unicode="&#xe9d9;" horiz-adv-x="1100" d="M912.362 27.535h-810.339v838.837h764.672l-293.749-389.168z" />
<glyph unicode="&#xe9da;" horiz-adv-x="1100" d="M467.357 96.893h295.479l-106.587 141.209" />
<glyph unicode="&#xe9db;" horiz-adv-x="1100" d="M543.226 571.788l162.581 215.393h-178.662" />
<glyph unicode="&#xe9dc;" horiz-adv-x="962" d="M721.286 114.643h-702.793v826.864h702.794l-228.279-419.419z" />
<glyph unicode="&#xe9dd;" horiz-adv-x="962" d="M930.529-45.508h-767.046v830.057h701.212l-192.971-354.549z" />
<glyph unicode="&#xe9de;" horiz-adv-x="962" d="M801.224 27.535h-699.201v838.837h699.202l-228.279-419.419z" />
<glyph unicode="&#xe9df;" horiz-adv-x="962" d="M443.728 112.362h217.292l-94.807 174.189" />
<glyph unicode="&#xe9e0;" horiz-adv-x="962" d="M510.464 508.267l138.309 254.115" />
<glyph unicode="&#xe9e1;" horiz-adv-x="817" d="M637.62 104.104c0-82.019-66.49-148.509-148.509-148.509v0c-82.019 0-148.509 66.49-148.509 148.509v0c0 82.019 66.49 148.509 148.509 148.509v0c82.019 0 148.509-66.49 148.509-148.509v0z" />
<glyph unicode="&#xe9e2;" horiz-adv-x="817" d="M468.936 168.478c0-80.683-65.407-146.090-146.090-146.090v0c-80.684 0-146.090 65.407-146.090 146.090v0c0 80.684 65.407 146.091 146.090 146.091v0c80.684 0 146.090-65.407 146.090-146.090v0z" />
<glyph unicode="&#xe9e3;" horiz-adv-x="817" d="M19.298 612.236v17.476c0 171.755 139.235 310.99 310.99 310.99s310.99-139.235 310.99-310.99c0-171.755-139.235-310.99-310.99-310.99h-22.203v293.514z" />
<glyph unicode="&#xe9e4;" horiz-adv-x="817" d="M169.317 507.366c-31.205 176.168 119.871 371.185 317.196 371.185 171.755 0 310.99-139.235 310.99-310.99s-139.235-310.99-310.99-310.99h-22.203v250.795z" />
<glyph unicode="&#xe9e5;" horiz-adv-x="817" d="M566.116 132.124c0-85.72-69.49-155.209-155.209-155.209v0c-85.72 0-155.209 69.49-155.209 155.209v0c0 85.72 69.49 155.209 155.209 155.209v0c85.72 0 155.209-69.49 155.209-155.209v0z" />
<glyph unicode="&#xe9e6;" horiz-adv-x="817" d="M488.055 132.124c0 0 0 0 0 0 0-43.661-35.395-79.056-79.056-79.056v0" />
<glyph unicode="&#xe9e7;" horiz-adv-x="817" d="M101.318 580.624v17.476c0 171.755 139.235 310.99 310.99 310.99s310.99-139.235 310.99-310.99c0-171.755-139.235-310.99-310.99-310.99h-22.203v293.514z" />
<glyph unicode="&#xe9e8;" horiz-adv-x="817" d="M644.081 603.479c0-109.466-91.503-210.215-178.098-222.654" />
<glyph unicode="&#xe9e9;" horiz-adv-x="972" d="M18.497 104.476h705.791l-166.369 299.958c88.753 47.603 151.369 146.911 151.369 254.672 0 155.964-126.434 282.397-282.397 282.397h-408.394z" />
<glyph unicode="&#xe9ea;" horiz-adv-x="972" d="M576.328 795.969c149.475 0 270.649-121.174 270.649-270.649 0-87.53-41.345-165.55-105.799-215.021l197.289-355.705h-770.485v841.375z" />
<glyph unicode="&#xe9eb;" horiz-adv-x="972" d="M100.919 27.442h705.791l-166.369 299.958c88.753 47.603 151.369 146.911 151.369 254.672 0 155.964-126.434 282.397-282.397 282.397h-408.394z" />
<glyph unicode="&#xe9ec;" horiz-adv-x="972" d="M496.842 590.123c0-11.266-9.133-20.398-20.398-20.398s-20.398 9.133-20.398 20.398c0 11.266 9.133 20.398 20.398 20.398s20.398-9.133 20.398-20.398z" />
<glyph unicode="&#xe9ed;" horiz-adv-x="972" d="M607.12 546.018c-30.768-86.417-108.411-107.591-167.29-87.901" />
<glyph unicode="&#xe9ee;" horiz-adv-x="972" d="M705.283 579.333c0 0-0.4-179.531-182.028-206.676l143.046-257.907h-226.74" />
</font>
</defs>
</svg>
